# xmcd
#
# Track frame offsets: 
#        150
#        18262
#        35207
#        52862
#        69935
#        87977
#        104317
#        120735
#        138532
#        158607
#        175017
#        190797
#        206960
#        220125
#        239535
#        261100
#        276480
#        294072
#        310615
#        329835
#
# Disc length: 4605 seconds
#
# Revision: 6
# Processed by: cddbd v1.5.2PL0 Copyright (c) Steve Scherf et al.
# Submitted via: ExactAudioCopyFreeDBPlugin 1.0
#
DISCID=2611fb14
DTITLE=Urban Rhymes - Disc 2
DYEAR=1998
DGENRE=Hip-Hop
TTITLE0=Coolio Feat. LV - Gangsta's Paradise
TTITLE1=Bone Thugs N Harmony - Tha Crossroads
TTITLE2=PM Dawn - Set Adrift On Memory Bliss
TTITLE3=Warren G Feat. Sissel - Prince Igor
TTITLE4=Missy Elliott - The Rain
TTITLE5=House Of Pain - Jump Around
TTITLE6=US3 - Cantaloop
TTITLE7=Monica - Like This And Like That
TTITLE8=Wu-Tang Clan - Triumph
TTITLE9=Craig Mack - Flava In Ya Ear
TTITLE10=Jay Z Feat. Foxy Brown - Ain't No Player
TTITLE11=Run DMC Feat. Aerosmith - Walk This Way
TTITLE12=Grandmaster Flash and Melle Mel - White Lines (Don't Do It)
TTITLE13=Rob Base and DJ E Z Rock - It Takes Two
TTITLE14=112 feat Notorious BIG - Only You
TTITLE15=Kaleef - Golden Brown
TTITLE16=R Kelly - She's Got That Vibe
TTITLE17=Smooth - Mind Blowin'
TTITLE18=Heavy D and The Boyz - Now That We Found Love
TTITLE19=Salt N' Pepa - Push It
EXTD=
EXTT0=
EXTT1=
EXTT2=
EXTT3=
EXTT4=
EXTT5=
EXTT6=
EXTT7=
EXTT8=
EXTT9=
EXTT10=
EXTT11=
EXTT12=
EXTT13=
EXTT14=
EXTT15=
EXTT16=
EXTT17=
EXTT18=
EXTT19=
PLAYORDER=
